<svg xmlns="http://www.w3.org/2000/svg" viewBox="0 0 640 400" fill="none">
  <rect width="640" height="400" fill="#f5f5f5"/>
  <rect x="40" y="32" width="560" height="48" rx="8" fill="#fff" stroke="#e0e0e0"/>
  <rect x="56" y="48" width="80" height="16" rx="4" fill="#2f2f2f" opacity="0.2"/>
  <rect x="160" y="48" width="48" height="8" rx="2" fill="#ccc"/>
  <rect x="220" y="48" width="48" height="8" rx="2" fill="#ccc"/>
  <rect x="40" y="100" width="360" height="260" rx="12" fill="#fff" stroke="#e0e0e0"/>
  <rect x="56" y="120" width="200" height="20" rx="4" fill="#2f2f2f" opacity="0.15"/>
  <rect x="56" y="152" width="280" height="10" rx="2" fill="#ddd"/>
  <rect x="56" y="170" width="240" height="10" rx="2" fill="#eee"/>
  <rect x="56" y="200" width="300" height="120" rx="8" fill="#efefef"/>
  <rect x="420" y="100" width="180" height="120" rx="12" fill="#fff" stroke="#e0e0e0"/>
  <rect x="436" y="116" width="80" height="12" rx="2" fill="#ddd"/>
  <rect x="420" y="240" width="180" height="120" rx="12" fill="#fff" stroke="#e0e0e0"/>
</svg>
